{"title":"Grace and Frankie S02E10 720p WEBRip x264","uid":14550243,"size":576646481,"categoryP":"video","categoryS":"hd___tv_shows","magnet":"?xt=urn:btih:203655f9a5595e38c8fccc0f923a6149b578dd58&amp;dn=Grace+and+Frankie+S02E10+720p+WEBRip+x264&amp;tr=udp%3A%2F%2Ftracker.leechers-paradise.org%3A6969&amp;tr=udp%3A%2F%2Fzer0day.ch%3A1337&amp;tr=udp%3A%2F%2Fopen.demonii.com%3A1337&amp;tr=udp%3A%2F%2Ftracker.coppersurfer.tk%3A6969&amp;tr=udp%3A%2F%2Fexodus.desync.com%3A6969","seeders":23,"leechers":0,"uploader":"TheRival","files":1,"time":1462645701,"description":"Screens: \nhttp://postimg.org/image/dd33u17b5/full/\r\n\r\nFormat ..........: mp4\r\nResolution ......: 1280*676\r\nFrame rate ......: 25 fps\r\nAudio ...........: AAC 128 kbps\r\n\r\nFull details:\r\n\r\nVideo\r\nID                                       : 1\r\nFormat                                   : AVC\r\nFormat/Info                              : Advanced Video Codec\r\nFormat profile                           :   \r\nFormat settings, CABAC                   : Yes\r\nFormat settings, ReFrames                : 1 frame\r\nFormat settings, GOP                     : M=3, N=24\r\nMuxing mode                              : Container   \r\nCodec ID                                 : avc1\r\nCodec ID/Info                            : Advanced Video Coding\r\nDuration                                 : 29mn 59s\r\nBit rate mode                            : Variable\r\nBit rate                                 : 2 429 Kbps\r\nMaximum bit rate                         : 3 750 Kbps\r\nWidth                                    : 1 280 pixels\r\nHeight                                   : 676 pixels\r\nDisplay aspect ratio                     : 1.893\r\nFrame rate mode                          : Constant\r\nFrame rate                               : 25.000 fps\r\nColor space                              : YUV\r\nChroma subsampling                       : 4:2:0\r\nBit depth                                : 8 bits\r\nScan type                                : Progressive\r\nBits/(Pixel*Frame)                       : 0.112\r\nStream size                              : 521 MiB (95%)\r\nLanguage                                 : English\r\n\r\nAudio\r\nID                                       : 2\r\nFormat                                   : AAC\r\nFormat/Info                              : Advanced Audio Codec\r\nFormat profile                           : LC\r\nCodec ID                                 : 40\r\nDuration                                 : 29mn 59s\r\nBit rate mode                            : Constant\r\nBit rate                                 : 128 Kbps\r\nChannel(s)                               : 2 channels\r\nChannel positions                        : Front: L R\r\nSampling rate                            : 48.0 KHz\r\nFrame rate                               : 46.875 fps (1024 spf)\r\nCompression mode                         : Lossy\r\nStream size                              : 27.5 MiB (5%)\r\nTitle                                    : Stereo\r\nLanguage                                 : English\r\nDefault                                  : Yes\r\nAlternate group                          : 1","torrent":{"xt":"urn:btih:203655f9a5595e38c8fccc0f923a6149b578dd58","amp;dn":"Grace+and+Frankie+S02E10+720p+WEBRip+x264","amp;tr":["udp%3A%2F%2Ftracker.leechers-paradise.org%3A6969","udp%3A%2F%2Fzer0day.ch%3A1337","udp%3A%2F%2Fopen.demonii.com%3A1337","udp%3A%2F%2Ftracker.coppersurfer.tk%3A6969","udp%3A%2F%2Fexodus.desync.com%3A6969"],"infoHash":"203655f9a5595e38c8fccc0f923a6149b578dd58","infoHashBuffer":{"type":"Buffer","data":[32,54,85,249,165,89,94,56,200,252,204,15,146,58,97,73,181,120,221,88]},"announce":[],"urlList":[]}}